<?xml version="1.0" encoding="utf-8"?>
<!-- Generator: Adobe Illustrator 28.0.0, SVG Export Plug-In . SVG Version: 6.00 Build 0)  -->
<svg version="1.1" xmlns="http://www.w3.org/2000/svg" xmlns:xlink="http://www.w3.org/1999/xlink" x="0px" y="0px"
	 viewBox="0 0 1366 768" style="enable-background:new 0 0 1366 768;" xml:space="preserve">
<style type="text/css">
	
		.st0{clip-path:url(#SVGID_00000010989707197858209580000010122574491759815574_);fill:#FFC87D;stroke:#000000;stroke-width:5.706;stroke-miterlimit:10;}
	
		.st1{display:none;clip-path:url(#SVGID_00000010989707197858209580000010122574491759815574_);fill:#FFFFFF;stroke:#000000;stroke-width:2;stroke-miterlimit:10;}
	.st2{clip-path:url(#SVGID_00000010989707197858209580000010122574491759815574_);}
	.st3{fill:#FFC87D;}
	
		.st4{clip-path:url(#SVGID_00000010989707197858209580000010122574491759815574_);fill:#FFFFFF;stroke:#000000;stroke-width:5;stroke-miterlimit:10;}
	.st5{fill:#FF970A;}
	
		.st6{clip-path:url(#SVGID_00000010989707197858209580000010122574491759815574_);stroke:#000000;stroke-width:5;stroke-miterlimit:10;}
	
		.st7{clip-path:url(#SVGID_00000080206147203022287270000014632783146684210321_);fill:#FFC87D;stroke:#000000;stroke-width:5.706;stroke-miterlimit:10;}
	
		.st8{display:none;clip-path:url(#SVGID_00000080206147203022287270000014632783146684210321_);fill:#FFFFFF;stroke:#000000;stroke-width:2;stroke-miterlimit:10;}
	.st9{clip-path:url(#SVGID_00000080206147203022287270000014632783146684210321_);}
	
		.st10{clip-path:url(#SVGID_00000080206147203022287270000014632783146684210321_);fill:#FFFFFF;stroke:#000000;stroke-width:5;stroke-miterlimit:10;}
	
		.st11{clip-path:url(#SVGID_00000080206147203022287270000014632783146684210321_);stroke:#000000;stroke-width:5;stroke-miterlimit:10;}
</style>
<g id="圖層_1">
</g>
<g id="圖層_2">
	<g>
		<g>
			<defs>
				<rect id="SVGID_1_" x="2" width="681" height="768"/>
			</defs>
			<clipPath id="SVGID_00000043447256846324270140000009546951157998559129_">
				<use xlink:href="#SVGID_1_"  style="overflow:visible;"/>
			</clipPath>
		</g>
		<g>
			<defs>
				<rect id="SVGID_00000168835152077401712720000009106464677670880679_" x="2" width="681" height="768"/>
			</defs>
			<clipPath id="SVGID_00000109732294956244063570000000981335670412384901_">
				<use xlink:href="#SVGID_00000168835152077401712720000009106464677670880679_"  style="overflow:visible;"/>
			</clipPath>
			
				<path style="clip-path:url(#SVGID_00000109732294956244063570000000981335670412384901_);fill:#FFC87D;stroke:#000000;stroke-width:5.706;stroke-miterlimit:10;" d="
				M589.66,329.08c15.02,5.94,24.73-4.32,32.88-12.95c8.16-8.63,16.2-14.28,4.96-24.9c-11.24-10.62-37.5-22.2-45.65-13.57
				C573.69,286.29,575.28,323.39,589.66,329.08z"/>
			
				<line style="display:none;clip-path:url(#SVGID_00000109732294956244063570000000981335670412384901_);fill:#FFFFFF;stroke:#000000;stroke-width:2;stroke-miterlimit:10;" x1="1366" y1="384" x2="0" y2="384"/>
			
				<line style="display:none;clip-path:url(#SVGID_00000109732294956244063570000000981335670412384901_);fill:#FFFFFF;stroke:#000000;stroke-width:2;stroke-miterlimit:10;" x1="683" y1="0" x2="683" y2="768"/>
			<g style="clip-path:url(#SVGID_00000109732294956244063570000000981335670412384901_);">
				<path class="st3" d="M682.93,504.5c15.84,0,30.99-4.88,43.8-14.12l1.04-0.75l1.22,0.41c8.74,2.96,17.87,4.46,27.14,4.46
					c46.5,0,84.33-37.83,84.33-84.33c0-44.25-34.55-81.21-78.66-84.14l-1.03-0.07l-0.68-0.77c-19.65-22.3-47.96-35.08-77.66-35.08
					c-29.72,0-58.04,12.79-77.68,35.1l-0.68,0.77l-1.02,0.07c-43.94,3.06-78.36,40.01-78.36,84.12c0,46.5,37.83,84.33,84.33,84.33
					c9.45,0,18.74-1.56,27.61-4.62l1.23-0.43l1.05,0.77C651.75,499.56,666.97,504.5,682.93,504.5z"/>
				<path d="M682.43,292.61c-29,0-56.64,12.49-75.81,34.25l-1.36,1.54l-2.05,0.14c-20.61,1.44-39.77,10.56-53.95,25.7
					c-14.24,15.21-22.09,35.07-22.09,55.92c0,45.12,36.71,81.83,81.83,81.83c9.17,0,18.19-1.51,26.8-4.49l2.47-0.85l2.11,1.53
					c12.41,9.03,27.13,13.8,42.55,13.8c15.32,0,29.96-4.72,42.34-13.65l2.09-1.51l2.44,0.83c8.48,2.87,17.34,4.33,26.34,4.33
					c45.12,0,81.83-36.71,81.83-81.83c0-20.9-7.88-40.79-22.18-56.01c-14.24-15.16-33.47-24.26-54.14-25.63l-2.06-0.14l-1.36-1.55
					C739.04,305.09,711.42,292.61,682.43,292.61 M682.43,287.61c31.68,0,60.12,13.9,79.54,35.93c45.23,3,80.99,40.64,80.99,86.63
					c0,47.95-38.88,86.83-86.83,86.83c-9.78,0-19.17-1.62-27.94-4.59c-12.73,9.18-28.37,14.59-45.26,14.59
					c-16.99,0-32.72-5.47-45.49-14.76c-8.91,3.08-18.47,4.76-28.43,4.76c-47.95,0-86.83-38.88-86.83-86.83
					c0-45.89,35.61-83.47,80.69-86.61C622.29,301.51,650.74,287.61,682.43,287.61L682.43,287.61z"/>
			</g>
			
				<path style="clip-path:url(#SVGID_00000109732294956244063570000000981335670412384901_);fill:#FFFFFF;stroke:#000000;stroke-width:5;stroke-miterlimit:10;" d="
				M662.5,190.31"/>
			<g style="clip-path:url(#SVGID_00000109732294956244063570000000981335670412384901_);">
				<path class="st5" d="M621.57,490.5c24.05,0,46.07-12.18,58.88-32.57l2.12-3.37l2.12,3.37c12.82,20.39,34.83,32.57,58.88,32.57
					c38.32,0,69.5-31.18,69.5-69.5s-31.18-69.5-69.5-69.5c-24.05,0-46.06,12.18-58.88,32.57l-2.12,3.37l-2.12-3.37
					c-12.82-20.39-34.83-32.57-58.88-32.57c-38.32,0-69.5,31.18-69.5,69.5S583.25,490.5,621.57,490.5z"/>
				<path d="M621.57,354c-36.94,0-67,30.06-67,67s30.06,67,67,67c23.19,0,44.41-11.74,56.77-31.4l4.23-6.74l4.23,6.74
					c12.36,19.66,33.58,31.4,56.77,31.4c36.94,0,67-30.06,67-67s-30.06-67-67-67c-23.19,0-44.41,11.74-56.77,31.4l-4.23,6.74
					l-4.23-6.74C665.98,365.74,644.76,354,621.57,354 M621.57,349c25.7,0,48.26,13.47,61,33.74c12.74-20.27,35.3-33.74,61-33.74
					c39.76,0,72,32.24,72,72s-32.24,72-72,72c-25.7,0-48.26-13.47-61-33.74c-12.74,20.27-35.3,33.74-61,33.74
					c-39.76,0-72-32.24-72-72S581.81,349,621.57,349L621.57,349z"/>
			</g>
			
				<path style="clip-path:url(#SVGID_00000109732294956244063570000000981335670412384901_);fill:#FFFFFF;stroke:#000000;stroke-width:5;stroke-miterlimit:10;" d="
				M683,0"/>
			<g style="clip-path:url(#SVGID_00000109732294956244063570000000981335670412384901_);">
				<path d="M658.68,351.57c-10.27-14.69-32.41-26.98-50.32-20.93c13.89-3.88,28.47,3.01,38.8,12.05c3.47,3.11,6.54,6.65,8.94,10.54
					L658.68,351.57L658.68,351.57z"/>
			</g>
			
				<path style="clip-path:url(#SVGID_00000109732294956244063570000000981335670412384901_);stroke:#000000;stroke-width:5;stroke-miterlimit:10;" d="
				M652,358c-8,16,31,38,31,38s55.94-25.69,39-39C708,346,657.73,346.55,652,358z"/>
			<g style="clip-path:url(#SVGID_00000109732294956244063570000000981335670412384901_);">
				<path d="M561.74,389.33c-24.12-15.39-57.15-14.63-80.67,1.6c-7.75,5.25-14.51,11.89-19.57,19.57
					c9.57-9.78,20.96-17.24,33.72-21.72c12.51-4.28,25.99-5.41,39.02-3.25c8.65,1.46,17.11,4.22,25.02,8.14L561.74,389.33
					L561.74,389.33z"/>
			</g>
			<g style="clip-path:url(#SVGID_00000109732294956244063570000000981335670412384901_);">
				<path d="M553.92,419.41c-28.06-5.62-58.57,7.05-74.62,30.69c-5.32,7.7-9.22,16.34-11.16,25.33
					c5.39-12.58,13.3-23.65,23.58-32.45c10.11-8.51,22.26-14.45,35.2-17.15c8.59-1.77,17.48-2.26,26.27-1.47L553.92,419.41
					L553.92,419.41z"/>
			</g>
			<g style="clip-path:url(#SVGID_00000109732294956244063570000000981335670412384901_);">
				<path d="M559.68,451.79c-27.53,7.81-48.89,33.02-52.37,61.38c-1.22,9.28-0.74,18.75,1.64,27.63
					c-0.95-13.65,1.03-27.11,6.15-39.64c5.11-12.19,13.21-23.02,23.48-31.33c6.83-5.5,14.52-9.99,22.7-13.31L559.68,451.79
					L559.68,451.79z"/>
			</g>
		</g>
		<g>
			<defs>
				<rect id="SVGID_00000155137979163723360840000012168509967730070429_" x="2" width="681" height="768"/>
			</defs>
			<clipPath id="SVGID_00000000924683479362916770000004365039290938085817_">
				<use xlink:href="#SVGID_00000155137979163723360840000012168509967730070429_"  style="overflow:visible;"/>
			</clipPath>
		</g>
	</g>
	<g>
		<g>
			<defs>
				<rect id="SVGID_00000133499654407566076710000001880204409851505323_" x="683" width="681" height="768"/>
			</defs>
			<clipPath id="SVGID_00000003795719402060924210000014434874554060752808_">
				<use xlink:href="#SVGID_00000133499654407566076710000001880204409851505323_"  style="overflow:visible;"/>
			</clipPath>
		</g>
		<g>
			<defs>
				<rect id="SVGID_00000150805043279641673230000005002553581470551172_" x="683" width="681" height="768"/>
			</defs>
			<clipPath id="SVGID_00000041261022004457849680000004535314200223482800_">
				<use xlink:href="#SVGID_00000150805043279641673230000005002553581470551172_"  style="overflow:visible;"/>
			</clipPath>
			
				<path style="clip-path:url(#SVGID_00000041261022004457849680000004535314200223482800_);fill:#FFC87D;stroke:#000000;stroke-width:5.706;stroke-miterlimit:10;" d="
				M776.34,329.08c-15.02,5.94-24.73-4.32-32.88-12.95c-8.16-8.63-16.2-14.28-4.96-24.9c11.24-10.62,37.5-22.2,45.65-13.57
				C792.31,286.29,790.72,323.39,776.34,329.08z"/>
			
				<line style="display:none;clip-path:url(#SVGID_00000041261022004457849680000004535314200223482800_);fill:#FFFFFF;stroke:#000000;stroke-width:2;stroke-miterlimit:10;" x1="0" y1="384" x2="1366" y2="384"/>
			
				<line style="display:none;clip-path:url(#SVGID_00000041261022004457849680000004535314200223482800_);fill:#FFFFFF;stroke:#000000;stroke-width:2;stroke-miterlimit:10;" x1="683" y1="0" x2="683" y2="768"/>
			<g style="clip-path:url(#SVGID_00000041261022004457849680000004535314200223482800_);">
				<path class="st3" d="M683.07,504.5c-15.84,0-30.99-4.88-43.8-14.12l-1.04-0.75l-1.22,0.41c-8.74,2.96-17.87,4.46-27.14,4.46
					c-46.5,0-84.33-37.83-84.33-84.33c0-44.25,34.55-81.21,78.66-84.14l1.03-0.07l0.68-0.77c19.65-22.3,47.96-35.08,77.66-35.08
					c29.72,0,58.04,12.79,77.68,35.1l0.68,0.77l1.02,0.07c43.94,3.06,78.36,40.01,78.36,84.12c0,46.5-37.83,84.33-84.33,84.33
					c-9.45,0-18.74-1.56-27.61-4.62l-1.23-0.43l-1.05,0.77C714.25,499.56,699.03,504.5,683.07,504.5z"/>
				<path d="M683.57,292.61c29,0,56.64,12.49,75.81,34.25l1.36,1.54l2.05,0.14c20.61,1.44,39.77,10.56,53.95,25.7
					c14.24,15.21,22.09,35.07,22.09,55.92c0,45.12-36.71,81.83-81.83,81.83c-9.17,0-18.19-1.51-26.8-4.49l-2.47-0.85l-2.11,1.53
					c-12.41,9.03-27.13,13.8-42.55,13.8c-15.32,0-29.96-4.72-42.34-13.65l-2.09-1.51l-2.44,0.83c-8.48,2.87-17.34,4.33-26.34,4.33
					c-45.12,0-81.83-36.71-81.83-81.83c0-20.9,7.88-40.79,22.18-56.01c14.24-15.16,33.47-24.26,54.14-25.63l2.06-0.14l1.36-1.55
					C626.96,305.09,654.58,292.61,683.57,292.61 M683.57,287.61c-31.68,0-60.12,13.9-79.54,35.93c-45.23,3-80.99,40.64-80.99,86.63
					c0,47.95,38.88,86.83,86.83,86.83c9.78,0,19.17-1.62,27.94-4.59c12.73,9.18,28.37,14.59,45.26,14.59
					c16.99,0,32.72-5.47,45.49-14.76c8.91,3.08,18.47,4.76,28.43,4.76c47.95,0,86.83-38.88,86.83-86.83
					c0-45.89-35.61-83.47-80.69-86.61C743.71,301.51,715.26,287.61,683.57,287.61L683.57,287.61z"/>
			</g>
			
				<path style="clip-path:url(#SVGID_00000041261022004457849680000004535314200223482800_);fill:#FFFFFF;stroke:#000000;stroke-width:5;stroke-miterlimit:10;" d="
				M703.5,190.31"/>
			<g style="clip-path:url(#SVGID_00000041261022004457849680000004535314200223482800_);">
				<path class="st5" d="M744.43,490.5c-24.05,0-46.07-12.18-58.88-32.57l-2.12-3.37l-2.12,3.37
					c-12.82,20.39-34.83,32.57-58.88,32.57c-38.32,0-69.5-31.18-69.5-69.5s31.18-69.5,69.5-69.5c24.05,0,46.06,12.18,58.88,32.57
					l2.12,3.37l2.12-3.37c12.82-20.39,34.83-32.57,58.88-32.57c38.32,0,69.5,31.18,69.5,69.5S782.75,490.5,744.43,490.5z"/>
				<path d="M744.43,354c36.94,0,67,30.06,67,67s-30.06,67-67,67c-23.19,0-44.41-11.74-56.77-31.4l-4.23-6.74l-4.23,6.74
					c-12.36,19.66-33.58,31.4-56.77,31.4c-36.94,0-67-30.06-67-67s30.06-67,67-67c23.19,0,44.41,11.74,56.77,31.4l4.23,6.74
					l4.23-6.74C700.02,365.74,721.24,354,744.43,354 M744.43,349c-25.7,0-48.26,13.47-61,33.74c-12.74-20.27-35.3-33.74-61-33.74
					c-39.76,0-72,32.24-72,72s32.24,72,72,72c25.7,0,48.26-13.47,61-33.74c12.74,20.27,35.3,33.74,61,33.74c39.76,0,72-32.24,72-72
					S784.19,349,744.43,349L744.43,349z"/>
			</g>
			
				<path style="clip-path:url(#SVGID_00000041261022004457849680000004535314200223482800_);fill:#FFFFFF;stroke:#000000;stroke-width:5;stroke-miterlimit:10;" d="
				M683,0"/>
			<g style="clip-path:url(#SVGID_00000041261022004457849680000004535314200223482800_);">
				<path d="M707.32,351.57c10.27-14.69,32.41-26.98,50.32-20.93c-13.89-3.88-28.47,3.01-38.8,12.05
					c-3.47,3.11-6.54,6.65-8.94,10.54L707.32,351.57L707.32,351.57z"/>
			</g>
			
				<path style="clip-path:url(#SVGID_00000041261022004457849680000004535314200223482800_);stroke:#000000;stroke-width:5;stroke-miterlimit:10;" d="
				M714,358c8,16-31,38-31,38s-55.94-25.69-39-39C658,346,708.27,346.55,714,358z"/>
			<g style="clip-path:url(#SVGID_00000041261022004457849680000004535314200223482800_);">
				<path d="M804.26,389.33c24.12-15.39,57.15-14.63,80.67,1.6c7.75,5.25,14.51,11.89,19.57,19.57
					c-9.57-9.78-20.96-17.24-33.72-21.72c-12.51-4.28-25.99-5.41-39.02-3.25c-8.65,1.46-17.11,4.22-25.02,8.14L804.26,389.33
					L804.26,389.33z"/>
			</g>
			<g style="clip-path:url(#SVGID_00000041261022004457849680000004535314200223482800_);">
				<path d="M812.08,419.41c28.06-5.62,58.57,7.05,74.62,30.69c5.32,7.7,9.22,16.34,11.16,25.33c-5.39-12.58-13.3-23.65-23.58-32.45
					c-10.11-8.51-22.26-14.45-35.2-17.15c-8.59-1.77-17.48-2.26-26.27-1.47L812.08,419.41L812.08,419.41z"/>
			</g>
			<g style="clip-path:url(#SVGID_00000041261022004457849680000004535314200223482800_);">
				<path d="M806.32,451.79c27.53,7.81,48.89,33.02,52.37,61.38c1.22,9.28,0.74,18.75-1.64,27.63c0.95-13.65-1.03-27.11-6.15-39.64
					c-5.11-12.19-13.21-23.02-23.48-31.33c-6.83-5.5-14.52-9.99-22.7-13.31L806.32,451.79L806.32,451.79z"/>
			</g>
		</g>
		<g>
			<defs>
				<rect id="SVGID_00000026871569781082376480000016203726952096752536_" x="683" width="681" height="768"/>
			</defs>
			<clipPath id="SVGID_00000175298980160873682780000001024243992020770490_">
				<use xlink:href="#SVGID_00000026871569781082376480000016203726952096752536_"  style="overflow:visible;"/>
			</clipPath>
		</g>
	</g>
</g>
</svg>
